# Blender 3.6.2
# www.blender.org
mtllib table.mtl
o Circle
v 0.000000 1.462774 -2.398403
v -0.396623 1.462774 -2.352318
v -0.778004 1.462774 -2.215835
v -1.129487 1.462774 -1.994199
v -1.437564 1.462774 -1.695927
v -1.690396 1.462774 -1.332481
v -1.878268 1.462774 -0.917829
v -1.993958 1.462774 -0.467905
v -2.033022 1.462774 0.000000
v -1.993958 1.462774 0.467905
v -1.878268 1.462774 0.917829
v -1.690396 1.462774 1.332481
v -1.437564 1.462774 1.695927
v -1.129487 1.462774 1.994199
v -0.778004 1.462774 2.215835
v -0.396623 1.462774 2.352318
v 0.000000 1.462774 2.398403
v 0.396623 1.462774 2.352318
v 0.778004 1.462774 2.215835
v 1.129487 1.462774 1.994199
v 1.437564 1.462774 1.695927
v 1.690396 1.462774 1.332481
v 1.878268 1.462774 0.917829
v 1.993958 1.462774 0.467905
v 2.033022 1.462774 0.000000
v 1.993958 1.462774 -0.467905
v 1.878268 1.462774 -0.917829
v 1.690396 1.462774 -1.332481
v 1.437564 1.462774 -1.695927
v 1.129487 1.462774 -1.994199
v 0.778004 1.462774 -2.215835
v 0.396623 1.462774 -2.352318
v 0.000000 1.633486 -2.398403
v -0.396623 1.633486 -2.352318
v -0.778004 1.633486 -2.215835
v -1.129487 1.633486 -1.994199
v -1.437564 1.633486 -1.695927
v -1.690396 1.633486 -1.332481
v -1.878268 1.633486 -0.917829
v -1.993958 1.633486 -0.467905
v -2.033022 1.633486 0.000000
v -1.993958 1.633486 0.467905
v -1.878268 1.633486 0.917829
v -1.690396 1.633486 1.332481
v -1.437564 1.633486 1.695927
v -1.129487 1.633486 1.994199
v -0.778004 1.633486 2.215835
v -0.396623 1.633486 2.352318
v 0.000000 1.633486 2.398403
v 0.396623 1.633486 2.352318
v 0.778004 1.633486 2.215835
v 1.129487 1.633486 1.994199
v 1.437564 1.633486 1.695927
v 1.690396 1.633486 1.332481
v 1.878268 1.633486 0.917829
v 1.993958 1.633486 0.467905
v 2.033022 1.633486 0.000000
v 1.993958 1.633486 -0.467905
v 1.878268 1.633486 -0.917829
v 1.690396 1.633486 -1.332481
v 1.437564 1.633486 -1.695927
v 1.129487 1.633486 -1.994199
v 0.778004 1.633486 -2.215835
v 0.396623 1.633486 -2.352318
vn 0.9109 -0.0000 -0.4127
vn -0.5334 -0.0000 0.8459
vn -0.1154 -0.0000 -0.9933
vn 0.8209 -0.0000 -0.5711
vn -0.3369 -0.0000 0.9415
vn -0.3369 -0.0000 -0.9415
vn 0.6956 -0.0000 -0.7184
vn -0.1154 -0.0000 0.9933
vn -0.5334 -0.0000 -0.8459
vn 0.5334 -0.0000 -0.8459
vn 0.1154 -0.0000 0.9933
vn -0.6956 -0.0000 -0.7184
vn 0.3369 -0.0000 -0.9415
vn 0.3369 -0.0000 0.9415
vn -0.8209 -0.0000 -0.5711
vn 0.1154 -0.0000 -0.9933
vn 0.5334 -0.0000 0.8459
vn -0.9109 -0.0000 -0.4127
vn 0.6956 -0.0000 0.7184
vn -0.9685 -0.0000 -0.2490
vn 0.8209 -0.0000 0.5711
vn -0.9965 -0.0000 -0.0832
vn 0.9109 -0.0000 0.4127
vn -0.9965 -0.0000 0.0832
vn 0.9685 -0.0000 0.2490
vn -0.9685 -0.0000 0.2490
vn 0.9965 -0.0000 0.0832
vn -0.9109 -0.0000 0.4127
vn 0.9965 -0.0000 -0.0832
vn -0.8209 -0.0000 0.5711
vn 0.9685 -0.0000 -0.2490
vn -0.6956 -0.0000 0.7184
vn -0.0000 1.0000 -0.0000
vn -0.0000 -1.0000 -0.0000
vt 0.760290 0.599008
vt 0.735942 0.599008
vt 0.735942 0.677468
vt 0.760290 0.677468
vt 0.833333 0.165640
vt 0.808985 0.165640
vt 0.808985 0.258190
vt 0.833333 0.258190
vt 0.760290 0.066725
vt 0.735942 0.066725
vt 0.735942 0.145185
vt 0.760290 0.145185
vt 0.760290 0.511828
vt 0.735942 0.511828
vt 0.833333 0.078460
vt 0.808985 0.078460
vt 0.760290 0.000000
vt 0.735942 0.000000
vt 0.760290 0.419278
vt 0.735942 0.419278
vt 0.833333 0.000000
vt 0.808985 0.000000
vt 0.808985 0.532283
vt 0.784638 0.532283
vt 0.784638 0.610743
vt 0.808985 0.610743
vt 0.760290 0.324915
vt 0.735942 0.324915
vt 0.784638 0.677468
vt 0.760290 0.677468
vt 0.760290 0.744193
vt 0.784638 0.744193
vt 0.808985 0.445103
vt 0.784638 0.445103
vt 0.760290 0.232365
vt 0.735942 0.232365
vt 0.784638 0.599008
vt 0.760290 0.599008
vt 0.808985 0.352553
vt 0.784638 0.352553
vt 0.784638 0.511828
vt 0.760290 0.511828
vt 0.784638 0.258190
vt 0.784638 0.419278
vt 0.760290 0.419278
vt 0.784638 0.165640
vt 0.784638 0.324915
vt 0.760290 0.324915
vt 0.784638 0.078460
vt 0.784638 0.232365
vt 0.760290 0.232365
vt 0.784638 0.000000
vt 0.784638 0.145185
vt 0.760290 0.145185
vt 0.833333 0.532283
vt 0.808985 0.532283
vt 0.808985 0.610743
vt 0.833333 0.610743
vt 0.784638 0.066725
vt 0.760290 0.066725
vt 0.833333 0.445103
vt 0.808985 0.445103
vt 0.760290 0.000000
vt 0.833333 0.352553
vt 0.808985 0.352553
vt 0.735942 0.744193
vt 0.760290 0.744193
vt 0.451304 0.553411
vt 0.456773 0.644713
vt 0.467502 0.729698
vt 0.483077 0.805100
vt 0.502900 0.868021
vt 0.526210 0.916043
vt 0.552110 0.947321
vt 0.579606 0.960652
vt 0.607640 0.955524
vt 0.635136 0.932135
vt 0.661036 0.891384
vt 0.684346 0.834835
vt 0.704169 0.764663
vt 0.719744 0.683564
vt 0.730473 0.594655
vt 0.735942 0.501352
vt 0.735942 0.407241
vt 0.730473 0.315938
vt 0.719744 0.230953
vt 0.704169 0.155552
vt 0.684346 0.092631
vt 0.661036 0.044609
vt 0.635136 0.013331
vt 0.607640 0.000000
vt 0.579606 0.005127
vt 0.552110 0.028516
vt 0.526210 0.069268
vt 0.502900 0.125817
vt 0.483077 0.195989
vt 0.467502 0.277088
vt 0.456773 0.365997
vt 0.451304 0.459300
vt 0.172136 0.365997
vt 0.166667 0.459300
vt 0.166667 0.553411
vt 0.172136 0.644713
vt 0.182864 0.729698
vt 0.198439 0.805100
vt 0.218262 0.868021
vt 0.241572 0.916043
vt 0.267473 0.947321
vt 0.294968 0.960652
vt 0.323003 0.955524
vt 0.350498 0.932135
vt 0.376399 0.891384
vt 0.399708 0.834835
vt 0.419532 0.764663
vt 0.435107 0.683564
vt 0.445835 0.594655
vt 0.451304 0.501352
vt 0.451304 0.407241
vt 0.445835 0.315938
vt 0.435107 0.230953
vt 0.419532 0.155552
vt 0.399708 0.092631
vt 0.376399 0.044609
vt 0.350498 0.013331
vt 0.323003 0.000000
vt 0.294968 0.005127
vt 0.267473 0.028516
vt 0.241572 0.069268
vt 0.218263 0.125817
vt 0.198439 0.195989
vt 0.182864 0.277088
s 0
usemtl Material.001
f 28/1/1 60/2/1 59/3/1 27/4/1
f 15/5/2 47/6/2 46/7/2 14/8/2
f 2/9/3 34/10/3 33/11/3 1/12/3
f 29/13/4 61/14/4 60/2/4 28/1/4
f 16/15/5 48/16/5 47/6/5 15/5/5
f 3/17/6 35/18/6 34/10/6 2/9/6
f 30/19/7 62/20/7 61/14/7 29/13/7
f 17/21/8 49/22/8 48/16/8 16/15/8
f 4/23/9 36/24/9 35/25/9 3/26/9
f 31/27/10 63/28/10 62/20/10 30/19/10
f 18/29/11 50/30/11 49/31/11 17/32/11
f 5/33/12 37/34/12 36/24/12 4/23/12
f 32/35/13 64/36/13 63/28/13 31/27/13
f 19/37/14 51/38/14 50/30/14 18/29/14
f 6/39/15 38/40/15 37/34/15 5/33/15
f 1/12/16 33/11/16 64/36/16 32/35/16
f 20/41/17 52/42/17 51/38/17 19/37/17
f 7/7/18 39/43/18 38/40/18 6/39/18
f 21/44/19 53/45/19 52/42/19 20/41/19
f 8/6/20 40/46/20 39/43/20 7/7/20
f 22/47/21 54/48/21 53/45/21 21/44/21
f 9/16/22 41/49/22 40/46/22 8/6/22
f 23/50/23 55/51/23 54/48/23 22/47/23
f 10/22/24 42/52/24 41/49/24 9/16/24
f 24/53/25 56/54/25 55/51/25 23/50/25
f 11/55/26 43/56/26 42/57/26 10/58/26
f 25/59/27 57/60/27 56/54/27 24/53/27
f 12/61/28 44/62/28 43/56/28 11/55/28
f 26/52/29 58/63/29 57/60/29 25/59/29
f 13/64/30 45/65/30 44/62/30 12/61/30
f 27/4/31 59/3/31 58/66/31 26/67/31
f 14/8/32 46/7/32 45/65/32 13/64/32
f 34/68/33 35/69/33 36/70/33 37/71/33 38/72/33 39/73/33 40/74/33 41/75/33 42/76/33 43/77/33 44/78/33 45/79/33 46/80/33 47/81/33 48/82/33 49/83/33 50/84/33 51/85/33 52/86/33 53/87/33 54/88/33 55/89/33 56/90/33 57/91/33 58/92/33 59/93/33 60/94/33 61/95/33 62/96/33 63/97/33 64/98/33 33/99/33
f 2/100/34 1/101/34 32/102/34 31/103/34 30/104/34 29/105/34 28/106/34 27/107/34 26/108/34 25/109/34 24/110/34 23/111/34 22/112/34 21/113/34 20/114/34 19/115/34 18/116/34 17/117/34 16/118/34 15/119/34 14/120/34 13/121/34 12/122/34 11/123/34 10/124/34 9/125/34 8/126/34 7/127/34 6/128/34 5/129/34 4/130/34 3/131/34
o Cube
v 0.978764 0.020691 -1.500758
v 0.978764 1.491420 -1.500758
v 0.978764 0.020691 -1.748391
v 0.978764 1.491420 -1.748391
v 1.226398 0.020691 -1.500758
v 1.226398 1.491420 -1.500758
v 1.226398 0.020691 -1.748391
v 1.226398 1.491420 -1.748391
v -0.978764 0.020691 -1.500758
v -0.978764 1.491420 -1.500758
v -0.978764 0.020691 -1.748391
v -0.978764 1.491420 -1.748391
v -1.226398 0.020691 -1.500758
v -1.226398 1.491420 -1.500758
v -1.226398 0.020691 -1.748391
v -1.226398 1.491420 -1.748391
v 0.978764 0.020691 1.500758
v 0.978764 1.491420 1.500758
v 0.978764 0.020691 1.748391
v 0.978764 1.491420 1.748391
v 1.226398 0.020691 1.500758
v 1.226398 1.491420 1.500758
v 1.226398 0.020691 1.748391
v 1.226398 1.491420 1.748391
v -0.978764 0.020691 1.500758
v -0.978764 1.491420 1.500758
v -0.978764 0.020691 1.748391
v -0.978764 1.491420 1.748391
v -1.226398 0.020691 1.500758
v -1.226398 1.491420 1.500758
v -1.226398 0.020691 1.748391
v -1.226398 1.491420 1.748391
vn -1.0000 -0.0000 -0.0000
vn -0.0000 -0.0000 -1.0000
vn 1.0000 -0.0000 -0.0000
vn -0.0000 -0.0000 1.0000
vn -0.0000 -1.0000 -0.0000
vn -0.0000 1.0000 -0.0000
vt 0.375000 0.000000
vt 0.625000 0.000000
vt 0.625000 0.250000
vt 0.375000 0.250000
vt 0.625000 0.500000
vt 0.375000 0.500000
vt 0.625000 0.750000
vt 0.375000 0.750000
vt 0.625000 1.000000
vt 0.375000 1.000000
vt 0.125000 0.500000
vt 0.125000 0.750000
vt 0.875000 0.500000
vt 0.875000 0.750000
s 0
usemtl Material.001
f 65/132/35 66/133/35 68/134/35 67/135/35
f 67/135/36 68/134/36 72/136/36 71/137/36
f 71/137/37 72/136/37 70/138/37 69/139/37
f 69/139/38 70/138/38 66/140/38 65/141/38
f 67/142/39 71/137/39 69/139/39 65/143/39
f 72/136/40 68/144/40 66/145/40 70/138/40
f 73/132/37 75/135/37 76/134/37 74/133/37
f 75/135/36 79/137/36 80/136/36 76/134/36
f 79/137/35 77/139/35 78/138/35 80/136/35
f 77/139/38 73/141/38 74/140/38 78/138/38
f 75/142/39 73/143/39 77/139/39 79/137/39
f 80/136/40 78/138/40 74/145/40 76/144/40
f 81/132/35 83/135/35 84/134/35 82/133/35
f 83/135/38 87/137/38 88/136/38 84/134/38
f 87/137/37 85/139/37 86/138/37 88/136/37
f 85/139/36 81/141/36 82/140/36 86/138/36
f 83/142/39 81/143/39 85/139/39 87/137/39
f 88/136/40 86/138/40 82/145/40 84/144/40
f 89/132/37 90/133/37 92/134/37 91/135/37
f 91/135/38 92/134/38 96/136/38 95/137/38
f 95/137/35 96/136/35 94/138/35 93/139/35
f 93/139/36 94/138/36 90/140/36 89/141/36
f 91/142/39 95/137/39 93/139/39 89/143/39
f 96/136/40 92/144/40 90/145/40 94/138/40
